<?xml version="1.0" encoding="UTF-8" standalone="no"?>
<svg
   width="2426.5894"
   height="1003.5124"
   viewBox="0 0 187.09586 77.373214"
   version="1.1"
   id="svg6"
   sodipodi:docname="disney_black_logo.svg"
   inkscape:version="1.1.2 (0a00cf5339, 2022-02-04)"
   xmlns:inkscape="http://www.inkscape.org/namespaces/inkscape"
   xmlns:sodipodi="http://sodipodi.sourceforge.net/DTD/sodipodi-0.dtd"
   xmlns="http://www.w3.org/2000/svg"
   xmlns:svg="http://www.w3.org/2000/svg">
  <defs
     id="defs10" />
  <sodipodi:namedview
     id="namedview8"
     pagecolor="#ffffff"
     bordercolor="#666666"
     borderopacity="1.0"
     inkscape:pageshadow="2"
     inkscape:pageopacity="0.0"
     inkscape:pagecheckerboard="0"
     showgrid="false"
     fit-margin-top="0"
     fit-margin-left="0"
     fit-margin-right="0"
     fit-margin-bottom="0"
     inkscape:zoom="0.3356"
     inkscape:cx="1214.2431"
     inkscape:cy="503.57569"
     inkscape:window-width="1920"
     inkscape:window-height="1011"
     inkscape:window-x="0"
     inkscape:window-y="32"
     inkscape:window-maximized="1"
     inkscape:current-layer="svg6" />
  <path
     d="m 94.119148,8.44318 a 5.674,5.674 0 0 1 3.451,1.38 c 1.312,1.242 1.656,3.313 1.035,4.97 -2.414,4.969 -8.155,8.288 -12.078,9.386 -2.347,0.552 -5.314,0.552 -7.454,-0.276 -1.036,0.621 -1.91,2.628 -3.175,1.794 -1.831,-1.43 -0.246,-3.668 -1.303,-5.256 -0.218,-0.327 -0.767,-0.351 -1.043,-0.886 -1.45,-3.175 0.345,-6.212 2.346,-8.627 3.336,-3.722 12.907,-7.869 18.221,-2.485 z m -11.112,2.484 c -1.864,0.345 -3.969,1.156 -5.107,2.485 -1.139,1.328 -1.863,2.623 -1.173,4.003 2.416,-1.794 3.589,-4.279 6.281,-5.797 -0.001,-0.277 0.413,-0.484 -0.001,-0.691 z m 11.251,0.691 c -4.763,-0.415 -8.352,3.175 -11.734,6.625 -0.207,0.552 -1.449,1.173 -0.483,1.794 4.556,0.414 8.904,-0.896 12.217,-3.934 0.967,-0.897 1.655,-2.07 1.174,-3.313 -0.207,-0.482 -0.694,-0.965 -1.174,-1.172 z m 41.271002,20.567 c 2.209,5.384 4.072,13.872 0,19.049 -1.104,1.242 -3.036,2.387 -4.278,1.449 -4.556,-3.657 -6.487,-8.903 -9.317,-13.597 -0.414,-0.207 -0.414,0.346 -0.621,0.553 -1.035,4.762 0.897,10.974 -2.346,14.7 -1.242,0.207 -2.404,-0.432 -2.83,-1.656 -1.588,-4.9 0.067,-10.008 0.481,-14.908 0.967,-2.485 1.381,-5.383 3.521,-7.247 3.451,1.38 5.107,5.246 7.107,8.076 1.451,2.139 2.623,4.555 4.279,6.487 1.449,-0.621 0.736,-2.515 0.691,-3.658 -0.554,-4.486 -1.796,-8.627 -2.97,-12.906 -0.067,-1.104 -0.688,-2.968 0.483,-3.658 3.11,1.381 4.419,4.624 5.8,7.316 z m -20.843,-1.657 c 0,1.036 -0.828,2.33 -1.52,2.485 -6.625,1.035 -14.010002,0.414 -20.221002,2.484 -0.207,0.759 0.69,0.897 1.173,1.104 5.313,0.828 10.905002,1.035 16.082002,2.347 2.737,0.695 3.728,3.935 3.935,6.626 0.127,2.122 -0.689,4.693 -2.761,6.143 -5.106,3.244 -12.905002,3.105 -18.083002,0.139 -1.979,-1.11 -3.865,-2.898 -4.003,-5.107 0.012,-1.754 0.76,-3.135 2.002,-3.796 4.97,-2.002 11.112002,-0.896 15.392002,1.656 0.274,1.381 -1.22,1.306 -1.935,1.795 -4.763002,2.761 -8.351002,-3.104 -12.768002,-0.967 -0.621,0.414 -1.07,1.569 -0.345,1.933 5.452,2.416 11.526002,0.69 16.909002,-0.828 0.621,-0.207 1.381,-0.828 1.449,-1.449 -0.207,-2.209 -2.691,-2.691 -4.279,-3.312 -4.693,-1.173 -9.869002,-1.173 -14.908002,-1.656 -0.966,-0.207 -2.197,-0.88 -2.484,-1.656 -0.552,-1.656 -0.552,-3.934 0.69,-5.314 6.418,-5.66 16.149002,-5.176 24.293002,-3.658 0.553,0.203 1.174,0.41 1.382,1.031 z m -30.160002,2.623 c 0.621,6.625 0.966,12.769 0.828,19.739 -0.138,0.896 -1.173,1.104 -1.863,1.449 -1.104,0.207 -2.531,-0.028 -2.968,-0.621 -1.587,-2.555 -1.035,-6.004 -1.173,-9.11 0.207,-4.899 0.138,-10.214 1.519,-14.77 0.264,-0.662 1.035,-1.242 1.656,-0.829 1.656,0.829 1.932,2.486 2.001,4.142 z m 76.680002,-0.966 c 0.332,0.558 0.679,1.42 0,1.794 -3.106,1.38 -7.315,0.759 -10.905,1.173 -0.966,0.828 -1.726,2.208 -1.382,3.451 0.347,0.207 0.656,0.522 1.037,0.482 2.207,0.139 5.521,-1.035 6.972,1.035 0.354,0.616 -0.048,2.916 -1.035,2.968 -2.693,0.347 -7.121,-0.338 -8.422,0.347 -1.656,1.104 -1.519,3.243 -2.14,4.97 1.174,0.759 2.403,-0.018 3.795,-0.208 2.556,-0.414 5.386,-1.173 7.938,-0.621 0.483,0.897 1.174,1.864 0.69,2.968 -4.351,3.451 -9.963,6.988 -15.942,4.486 -2.244,-1.006 -3.244,-4.417 -2.484,-7.314 0.482,-2.071 2.621,-4.072 1.311,-6.281 -0.207,-0.967 0.346,-1.794 1.174,-2.001 2.277,0 1.793,-2.83 2.967,-4.142 -1.311,-1.449 -4.623,-1.38 -4.278,-4.279 1.588,-0.828 3.521,-0.552 5.313,-0.828 4.072,-0.829 8.627,-1.312 12.771,-0.829 0.825,0.166 1.93,1.794 2.62,2.829 z m -98.559002,-15.736 c 6.369,5.206 14.632,14.08 13.597,24.294 -1.243,8.076 -9.801,14.149 -17.048,16.082 -7.04,2.07 -15.874,1.863 -23.053,0.207 -0.483,1.312 -0.966,2.898 -2.484,3.451 -0.966,0.345 -2.209,0.138 -2.968,-0.483 -2.139,-2.002 -0.414,-5.867 -3.52,-7.108 -6.074,-2.554 -12.631,-7.593 -15.736,-13.804 -0.414,-1.242 0.069,-2.484 0.828,-3.45 4.763,-3.796 10.767,-5.314 16.772,-6.488 0.345,0.138 0.207,-0.345 0.483,-0.483 0.345,-4.141 0.483,-8.352 1.794,-12.079 0.299,-0.523 1.035,-0.69 1.519,-0.345 3.796,2.898 2.001,8.352 3.658,12.285 7.247,0.345 14.494,0.69 20.222,4.763 1.933,1.587 2.404,4.618 1.794,6.35 -0.609,1.729 -2.622,2.968 -4.486,3.104 -1.243,0 -3.589,0.121 -3.451,-0.827 0.138,-0.949 4.222,-2.502 2.968,-3.797 -1.803,-1.861 -10.824,-2.968 -16.415,-3.658 -0.69,-0.138 -1.323,0.069 -1.323,0.828 -0.138,5.245 -0.552,11.042 0.345,16.082 0.069,0.346 0.483,0.76 0.829,0.827 9.869,1.588 20.291,0.69 28.021,-4.969 3.589,-2.897 4.763,-6.972 4.141,-11.457 -3.106,-12.492 -16.15,-20.016 -26.848,-24.847 -10.421,-4.555 -21.948,-6.902 -34.3019997,-6.28 -1.967,0.144 -5.084,0.823 -5.107,1.519 -0.023,0.696 3.531,0.477 3.105,1.794 -0.425,1.316 -4.037,0.535 -5.10699997,0.207 -1.07,-0.328 -0.966,-1.864 -0.69,-2.83 C 2.8771483,0.57517999 10.389148,0.19017999 13.782148,0.02317999 c 18.772,-0.484 36.925,6.66500001 48.865,16.42600001 z m -33.819,18.497 c -4.763,0.069 -9.801,0.552 -14.218,2.208 -0.897,0.345 -2.002,1.311 -1.312,2.485 1.794,2.415 4.36,4.398 6.764,5.797 2.404,1.397 5.591,3.175 8.49,3.59 0.69,-4.487 0.69,-8.904 0.621,-13.528 -0.277,-0.138 -0.001,-0.414 -0.345,-0.552 z m 142.660002,-6.281 c -0.207,6.004 -5.799,9.732 -5.799,15.736 0.207,0.207 0.347,0.483 0.621,0.347 4.488,-4.901 8.904,-11.872 15.461,-13.942 1.728,-0.138 3.289,1.363 3.935,2.485 2.278,4.555 1.728,10.974 -1.448,15.115 -3.277,4.065 -8.974,8.144 -15.459,7.453 -2.691,6.626 -4.558,13.597 -5.593,20.844 -0.552,1.449 -1.862,0.138 -2.69,-0.138 -5.59,-4.417 -1,-16.11 -0.621,-17.602 0.379,-1.488 1.875,-4.998 2.969,-7.937 -2.623,-4.692 -0.967,-10.353 1.172,-14.701 1.656,-2.899 3.936,-5.798 6.627,-8.006 0.342,0.001 0.618,0.07 0.825,0.346 z m 11.114,7.454 c -0.828,-0.138 -1.174,0.967 -1.863,1.174 -3.174,3.589 -6.35,7.178 -7.938,11.457 2.141,0.276 3.934,-1.104 5.799,-1.863 3.174,-2.002 5.176,-5.313 4.969,-9.11 -0.139,-0.623 -0.691,-1.106 -0.967,-1.658 z"
     id="path4" />
</svg>
